<svg width="110" height="92" viewBox="0 0 110 92" fill="none" xmlns="http://www.w3.org/2000/svg">
<path d="M25.7886 49.8332C11.6323 36.4165 35.7803 29.7082 41.8434 22.9998C47.9111 29.7082 72.0546 36.4165 57.8982 49.8332H25.7886ZM81.6421 26.8332C72.2908 17.2498 84.3898 12.4582 88.3955 7.6665C92.4058 12.4582 104.5 17.2498 95.149 26.8332H81.6421ZM46.3851 14.0183C45.8953 14.4516 45.3078 14.7979 44.6572 15.0368C44.0066 15.2757 43.3059 15.4024 42.5964 15.4095C41.8869 15.4165 41.1829 15.3038 40.5258 15.0778C39.8687 14.8519 39.2717 14.5174 38.77 14.0939C38.2683 13.6704 37.8719 13.1666 37.6043 12.612C37.3366 12.0573 37.203 11.4631 37.2113 10.8643C37.2197 10.2655 37.3698 9.67408 37.6528 9.12492C37.9359 8.57575 38.3462 8.0799 38.8596 7.6665M41.8434 15.3332V22.9998V15.3332ZM78.1768 65.1665V84.3332H19.7845C15.1975 84.3332 12.9039 84.3332 11.4733 83.21C10.0518 82.0868 10.0518 80.2813 10.0518 76.6665V65.1665C10.0518 57.9368 10.0518 54.3258 12.9039 52.0795C15.7515 49.8332 20.3386 49.8332 29.5173 49.8332H58.7112C67.8853 49.8332 72.4724 49.8332 75.3246 52.0795C78.1768 54.3258 78.1768 57.9368 78.1768 65.1665Z" fill="white"/>
<path d="M41.8434 22.9998C35.7803 29.7082 11.6323 36.4165 25.7886 49.8332H57.8982C72.0546 36.4165 47.9111 29.7082 41.8434 22.9998ZM41.8434 22.9998V15.3332M46.3851 14.0183C45.8953 14.4516 45.3078 14.7979 44.6572 15.0368C44.0066 15.2757 43.3059 15.4024 42.5964 15.4095C41.8869 15.4165 41.1829 15.3038 40.5258 15.0778C39.8687 14.8519 39.2717 14.5174 38.77 14.0939C38.2683 13.6704 37.8719 13.1666 37.6043 12.612C37.3366 12.0573 37.203 11.4631 37.2114 10.8643C37.2197 10.2655 37.3698 9.67408 37.6528 9.12492C37.9359 8.57575 38.3462 8.0799 38.8596 7.6665M81.642 26.8332C72.2908 17.2498 84.3898 12.4582 88.3955 7.6665C92.4058 12.4582 104.5 17.2498 95.149 26.8332H81.642ZM78.1768 65.1665V84.3332H19.7845C15.1975 84.3332 12.9039 84.3332 11.4733 83.21C10.0518 82.0868 10.0518 80.2813 10.0518 76.6665V65.1665C10.0518 57.9368 10.0518 54.3258 12.9039 52.0795C15.7515 49.8332 20.3386 49.8332 29.5173 49.8332H58.7112C67.8853 49.8332 72.4724 49.8332 75.3246 52.0795C78.1768 54.3258 78.1768 57.9368 78.1768 65.1665Z" stroke="white" stroke-width="0.75" stroke-linecap="round" stroke-linejoin="round"/>
<path d="M69.0935 84.333H81.2969C91.0615 84.333 95.9484 84.333 98.7642 81.8107C101.58 79.2883 101.099 75.3515 100.127 67.474L95.1082 26.833H80.92L76.5055 51.7497M32.7602 84.333V76.6663C32.6829 65.1663 44.1143 61.333 44.1143 61.333C44.1143 61.333 55.5457 65.1663 55.4685 76.6663V84.333" fill="#C4C4C4"/>
<path d="M69.0935 84.333H81.2969C91.0615 84.333 95.9484 84.333 98.7642 81.8107C101.58 79.2883 101.099 75.3515 100.127 67.474L95.1082 26.833H80.92L76.5055 51.7497M32.7602 84.333V76.6663C32.6829 65.1663 44.1143 61.333 44.1143 61.333C44.1143 61.333 55.5457 65.1663 55.4685 76.6663V84.333" stroke="white" stroke-width="0.75" stroke-linecap="round" stroke-linejoin="round"/>
</svg>
